<svg xmlns="http://www.w3.org/2000/svg" width="134.48" height="76.2" viewBox="0 0 134.48 76.2">
  <title>Ресурс 1</title>
  <g id="Слой_2" data-name="Слой 2">
    <g id="Слой_1-2" data-name="Слой 1">
      <g>
        <path d="M28.06,52.32a10.21,10.21,0,0,1-7.84-9.85c.06-4.49,3.33-8.47,6.45-9.1C27,33.31,28.62,33.2,32,33c2.22-.15,2.66-.16,3.28-.51,1.06-.6,2.47-2,4-5.27,1.84-4,2-3.81,2.49-4.11a4.14,4.14,0,0,1,3.78-.22c1.75.47,2,1.22,3.54,1.76a8.91,8.91,0,0,0,5.81-.25c4-1.19,25.58-7.23,55.24-15.67A5.88,5.88,0,0,1,113.88,8a6.29,6.29,0,0,1,4.42,3.29l4.8.38V8.74l-4.22-4.61V2.32L106.59,5.9A6.77,6.77,0,0,1,104.12,8a6.35,6.35,0,0,1-1.91.6L55.53,21.44c-1,.22-2.43.38-3.12-.41-.53-.6-.3-1.43,0-4s.47-4.07.17-4.84a5.64,5.64,0,0,0-4.19-3c-1.47-.27-3,0-6.07,1.8-5.74,3.32-5.44,5.21-8.78,6.48-2.7,1-5.35.58-10.67-.32s-5.83-2-9.51-2c-2.17,0-5.92,0-8.95,2.38s-3.74,6-4.1,7.87C-2.25,39,11.76,50.27,13.11,51.33c3.53,2.78,6,3.47,8.21,3.45A11.5,11.5,0,0,0,28.06,52.32Z"/>
        <circle cx="107.28" cy="3.97" r="1.32"/>
        <circle cx="111.43" cy="2.64" r="1.32"/>
        <circle cx="115.48" cy="1.32" r="1.32"/>
        <g style="isolation: isolate">
          <text transform="translate(30.06 50.85)" style="isolation: isolate;font-size: 20px;font-family: Arial-BoldMT, Arial;font-weight: 700;letter-spacing: 0.05em">GUI</text>
          <text transform="translate(67.4 50.85)" style="isolation: isolate;font-size: 20px;font-family: Arial-BoldMT, Arial;font-weight: 700;letter-spacing: -0.0389892578125em">T</text>
          <text transform="translate(78.92 50.85)" style="isolation: isolate;font-size: 20px;font-family: Arial-BoldMT, Arial;font-weight: 700;letter-spacing: 0.05em">AR</text>
        </g>
        <g style="isolation: isolate">
          <text transform="translate(46.78 69.71)" style="isolation: isolate;font-size: 20px;font-family: ArialMT, Arial;letter-spacing: 0.02900390625em">S</text>
          <text transform="translate(60.2 69.71)" style="isolation: isolate;font-size: 20px;font-family: ArialMT, Arial;letter-spacing: 0.0389892578125em">CHOO<tspan x="63.12" y="0" style="letter-spacing: 0.0018798828125em">L</tspan></text>
        </g>
      </g>
    </g>
  </g>
</svg>
