<svg width="209" height="230" viewBox="0 0 209 230" fill="none" xmlns="http://www.w3.org/2000/svg">
<path fill-rule="evenodd" clip-rule="evenodd" d="M208.615 121.003C208.474 124.032 208.227 127.03 207.878 129.993L91.1122 0.968531C93.7936 0.582751 96.5071 0.309749 99.2486 0.153972L208.615 121.003ZM81.4806 2.86798C84.2568 2.16956 87.0752 1.59379 89.9309 1.1461L207.717 131.299C207.312 134.454 206.791 137.569 206.159 140.636L81.4806 2.86798ZM200.966 158.729C201.839 156.386 202.643 154.004 203.377 151.587L71.5703 5.94233C69.3825 6.75301 67.2272 7.64182 65.107 8.60575L200.966 158.729ZM64.1601 9.04234C61.8413 10.1264 59.5655 11.3007 57.3362 12.5613L197.387 167.316C198.527 164.852 199.59 162.337 200.571 159.775L64.1601 9.04234ZM206.738 92.3615C205.919 87.824 204.857 83.3828 203.569 79.055L137.211 5.72916C133.294 4.30635 129.275 3.13348 125.168 2.22763L206.738 92.3615ZM123.509 1.87714C119.759 1.1199 115.938 0.584767 112.059 0.284538L208.497 106.847C208.225 102.561 207.741 98.339 207.056 94.1949L123.509 1.87714ZM208.754 115C208.754 116.535 208.727 118.063 208.673 119.584L100.532 0.0896966C101.909 0.0300846 103.292 0 104.681 0C106.677 0 108.659 0.0620616 110.627 0.184534L208.587 108.43C208.698 110.604 208.754 112.795 208.754 115ZM205.905 141.839C205.273 144.761 204.539 147.64 203.709 150.472L72.5796 5.5747C75.1418 4.65758 77.7476 3.84728 80.3925 3.14856L205.905 141.839ZM193.997 55.935C197.558 62.4959 200.544 69.4816 202.877 76.807L139.245 6.49421C145.874 9.07264 152.196 12.3719 158.134 16.3068L193.997 55.935ZM56.452 13.0672C54.2805 14.3243 52.1541 15.6636 50.0763 17.0814L193.296 175.338C194.579 173.042 195.791 170.692 196.929 168.293L56.452 13.0672ZM192.78 176.251L49.2499 17.6512C47.4451 18.9086 45.6776 20.2257 43.9499 21.5998L189.207 182.107C190.45 180.198 191.642 178.245 192.78 176.251ZM188.642 182.966L43.1727 22.224C41.2554 23.7786 39.3882 25.404 37.574 27.0968L184.232 189.153C185.764 187.148 187.235 185.085 188.642 182.966ZM161.741 18.8094C173.672 27.4687 183.896 38.7655 191.732 51.9495L161.741 18.8094ZM183.615 189.953L36.8495 27.7791C35.0585 29.4813 33.3205 31.2497 31.6387 33.0809L178.817 195.711C180.474 193.853 182.074 191.932 183.615 189.953ZM178.147 196.455C176.665 198.087 175.139 199.67 173.57 201.202L26.6696 38.878C28.0558 37.1447 29.4886 35.458 30.9658 33.8203L178.147 196.455ZM167.324 206.842C169.219 205.262 171.064 203.611 172.855 201.894L26.0431 39.6686C24.4891 41.6475 22.9954 43.6857 21.5649 45.7796L167.324 206.842ZM166.557 207.477L20.9908 46.6281C19.5644 48.7563 18.203 50.9408 16.9098 53.178L160.629 211.986C162.654 210.557 164.631 209.053 166.557 207.477ZM153.328 216.69C151.126 217.978 148.877 219.183 146.585 220.298L9.38781 68.6969C10.3972 66.164 11.487 63.679 12.6534 61.2457L153.328 216.69ZM154.202 216.172L13.1216 60.2802C14.1541 58.1752 15.2444 56.1098 16.39 54.0865L159.807 212.561C157.976 213.827 156.107 215.031 154.202 216.172ZM145.649 220.747L8.98132 69.7306C7.96758 72.3439 7.03894 75.007 6.19925 77.7158L138.423 223.821C140.874 222.894 143.284 221.867 145.649 220.747ZM137.419 224.195C135.165 225.02 132.876 225.762 130.557 226.417L3.8498 86.4077C4.44329 83.8446 5.11472 81.316 5.86113 78.8251L137.419 224.195ZM121.152 228.568C123.968 228.073 126.747 227.453 129.483 226.714L3.58125 87.5939C2.91231 90.6174 2.35154 93.6877 1.90375 96.7996L121.152 228.568ZM0.791235 108.113C0.97212 104.729 1.28541 101.384 1.72547 98.0855L119.988 228.765C117.003 229.251 113.976 229.597 110.914 229.797L0.791235 108.113ZM0.723709 109.521L109.64 229.872C107.996 229.957 106.343 230 104.681 230C103.385 230 102.095 229.974 100.811 229.922L0.678272 119.276C0.631338 117.857 0.607666 116.432 0.607666 115C0.607666 113.163 0.646635 111.337 0.723709 109.521ZM0.738892 120.826L99.4088 229.855C95.6293 229.647 91.9029 229.215 88.2401 228.573L1.89896 133.167C1.31767 129.12 0.927472 125.002 0.738892 120.826ZM2.16758 134.947L86.6294 228.276C82.1117 227.403 77.6941 226.208 73.3968 224.714L5.39174 149.569C4.03905 144.82 2.95763 139.939 2.16758 134.947ZM6.04072 151.769C8.18002 158.779 10.9142 165.487 14.1769 171.818L53.2611 215.006C58.9914 218.611 65.0617 221.633 71.4058 223.997L6.04072 151.769ZM16.1413 175.472C24.6389 190.631 36.2359 203.446 49.9546 212.835L16.1413 175.472Z" fill="url(#paint0_linear_37_196)" fill-opacity="0.4"/>
<defs>
<linearGradient id="paint0_linear_37_196" x1="42.6022" y1="25.2193" x2="180.299" y2="196.212" gradientUnits="userSpaceOnUse">
<stop stop-color="#ED7B50"/>
<stop offset="0.541667" stop-color="#488AEA"/>
<stop offset="1" stop-color="#2C2C2C"/>
</linearGradient>
</defs>
</svg>
